<svg xmlns="http://www.w3.org/2000/svg" viewBox="0 0 500 500" width="500" height="500"><rect width="500" height="500" fill="#111"/><polygon points="250.0,250.0 278.0,250.0 277.6,254.9" fill="hsl(20,80%,50%)" opacity="0.7"/><polygon points="250.0,250.0 277.6,254.9 276.3,259.6" fill="hsl(30,80%,50%)" opacity="0.7"/><polygon points="250.0,250.0 276.3,259.6 274.2,264.0" fill="hsl(40,80%,50%)" opacity="0.7"/><polygon points="250.0,250.0 274.2,264.0 271.4,268.0" fill="hsl(50,80%,50%)" opacity="0.7"/><polygon points="250.0,250.0 271.4,268.0 268.0,271.4" fill="hsl(60,80%,50%)" opacity="0.7"/><polygon points="250.0,250.0 268.0,271.4 264.0,274.2" fill="hsl(70,80%,50%)" opacity="0.7"/><polygon points="250.0,250.0 264.0,274.2 259.6,276.3" fill="hsl(80,80%,50%)" opacity="0.7"/><polygon points="250.0,250.0 259.6,276.3 254.9,277.6" fill="hsl(90,80%,50%)" opacity="0.7"/><polygon points="250.0,250.0 254.9,277.6 250.0,278.0" fill="hsl(100,80%,50%)" opacity="0.7"/><polygon points="250.0,250.0 250.0,278.0 245.1,277.6" fill="hsl(110,80%,50%)" opacity="0.7"/><polygon points="250.0,250.0 245.1,277.6 240.4,276.3" fill="hsl(120,80%,50%)" opacity="0.7"/><polygon points="250.0,250.0 240.4,276.3 236.0,274.2" fill="hsl(130,80%,50%)" opacity="0.7"/><polygon points="250.0,250.0 236.0,274.2 232.0,271.4" fill="hsl(140,80%,50%)" opacity="0.7"/><polygon points="250.0,250.0 232.0,271.4 228.6,268.0" fill="hsl(150,80%,50%)" opacity="0.7"/><polygon points="250.0,250.0 228.6,268.0 225.8,264.0" fill="hsl(160,80%,50%)" opacity="0.7"/><polygon points="250.0,250.0 225.8,264.0 223.7,259.6" fill="hsl(170,80%,50%)" opacity="0.7"/><polygon points="250.0,250.0 223.7,259.6 222.4,254.9" fill="hsl(180,80%,50%)" opacity="0.7"/><polygon points="250.0,250.0 222.4,254.9 222.0,250.0" fill="hsl(190,80%,50%)" opacity="0.7"/><polygon points="250.0,250.0 222.0,250.0 222.4,245.1" fill="hsl(200,80%,50%)" opacity="0.7"/><polygon points="250.0,250.0 222.4,245.1 223.7,240.4" fill="hsl(210,80%,50%)" opacity="0.7"/><polygon points="250.0,250.0 223.7,240.4 225.8,236.0" fill="hsl(220,80%,50%)" opacity="0.7"/><polygon points="250.0,250.0 225.8,236.0 228.6,232.0" fill="hsl(229,80%,50%)" opacity="0.7"/><polygon points="250.0,250.0 228.6,232.0 232.0,228.6" fill="hsl(240,80%,50%)" opacity="0.7"/><polygon points="250.0,250.0 232.0,228.6 236.0,225.8" fill="hsl(250,80%,50%)" opacity="0.7"/><polygon points="250.0,250.0 236.0,225.8 240.4,223.7" fill="hsl(260,80%,50%)" opacity="0.7"/><polygon points="250.0,250.0 240.4,223.7 245.1,222.4" fill="hsl(270,80%,50%)" opacity="0.7"/><polygon points="250.0,250.0 245.1,222.4 250.0,222.0" fill="hsl(280,80%,50%)" opacity="0.7"/><polygon points="250.0,250.0 250.0,222.0 254.9,222.4" fill="hsl(290,80%,50%)" opacity="0.7"/><polygon points="250.0,250.0 254.9,222.4 259.6,223.7" fill="hsl(300,80%,50%)" opacity="0.7"/><polygon points="250.0,250.0 259.6,223.7 264.0,225.8" fill="hsl(310,80%,50%)" opacity="0.7"/><polygon points="250.0,250.0 264.0,225.8 268.0,228.6" fill="hsl(320,80%,50%)" opacity="0.7"/><polygon points="250.0,250.0 268.0,228.6 271.4,232.0" fill="hsl(330,80%,50%)" opacity="0.7"/><polygon points="250.0,250.0 271.4,232.0 274.2,236.0" fill="hsl(340,80%,50%)" opacity="0.7"/><polygon points="250.0,250.0 274.2,236.0 276.3,240.4" fill="hsl(350,80%,50%)" opacity="0.7"/><polygon points="250.0,250.0 276.3,240.4 277.6,245.1" fill="hsl(0,80%,50%)" opacity="0.7"/><polygon points="250.0,250.0 277.6,245.1 278.0,250.0" fill="hsl(9,80%,50%)" opacity="0.7"/><polygon points="250.0,250.0 306.0,250.0 305.1,259.7" fill="hsl(40,80%,50%)" opacity="0.7"/><polygon points="250.0,250.0 305.1,259.7 302.6,269.2" fill="hsl(50,80%,50%)" opacity="0.7"/><polygon points="250.0,250.0 302.6,269.2 298.5,278.0" fill="hsl(60,80%,50%)" opacity="0.7"/><polygon points="250.0,250.0 298.5,278.0 292.9,286.0" fill="hsl(70,80%,50%)" opacity="0.7"/><polygon points="250.0,250.0 292.9,286.0 286.0,292.9" fill="hsl(80,80%,50%)" opacity="0.7"/><polygon points="250.0,250.0 286.0,292.9 278.0,298.5" fill="hsl(90,80%,50%)" opacity="0.7"/><polygon points="250.0,250.0 278.0,298.5 269.2,302.6" fill="hsl(100,80%,50%)" opacity="0.7"/><polygon points="250.0,250.0 269.2,302.6 259.7,305.1" fill="hsl(110,80%,50%)" opacity="0.7"/><polygon points="250.0,250.0 259.7,305.1 250.0,306.0" fill="hsl(120,80%,50%)" opacity="0.7"/><polygon points="250.0,250.0 250.0,306.0 240.3,305.1" fill="hsl(130,80%,50%)" opacity="0.7"/><polygon points="250.0,250.0 240.3,305.1 230.8,302.6" fill="hsl(140,80%,50%)" opacity="0.7"/><polygon points="250.0,250.0 230.8,302.6 222.0,298.5" fill="hsl(150,80%,50%)" opacity="0.7"/><polygon points="250.0,250.0 222.0,298.5 214.0,292.9" fill="hsl(160,80%,50%)" opacity="0.7"/><polygon points="250.0,250.0 214.0,292.9 207.1,286.0" fill="hsl(170,80%,50%)" opacity="0.7"/><polygon points="250.0,250.0 207.1,286.0 201.5,278.0" fill="hsl(180,80%,50%)" opacity="0.7"/><polygon points="250.0,250.0 201.5,278.0 197.4,269.2" fill="hsl(190,80%,50%)" opacity="0.7"/><polygon points="250.0,250.0 197.4,269.2 194.9,259.7" fill="hsl(200,80%,50%)" opacity="0.7"/><polygon points="250.0,250.0 194.9,259.7 194.0,250.0" fill="hsl(210,80%,50%)" opacity="0.7"/><polygon points="250.0,250.0 194.0,250.0 194.9,240.3" fill="hsl(220,80%,50%)" opacity="0.7"/><polygon points="250.0,250.0 194.9,240.3 197.4,230.8" fill="hsl(229,80%,50%)" opacity="0.7"/><polygon points="250.0,250.0 197.4,230.8 201.5,222.0" fill="hsl(240,80%,50%)" opacity="0.7"/><polygon points="250.0,250.0 201.5,222.0 207.1,214.0" fill="hsl(250,80%,50%)" opacity="0.7"/><polygon points="250.0,250.0 207.1,214.0 214.0,207.1" fill="hsl(260,80%,50%)" opacity="0.7"/><polygon points="250.0,250.0 214.0,207.1 222.0,201.5" fill="hsl(270,80%,50%)" opacity="0.7"/><polygon points="250.0,250.0 222.0,201.5 230.8,197.4" fill="hsl(280,80%,50%)" opacity="0.7"/><polygon points="250.0,250.0 230.8,197.4 240.3,194.9" fill="hsl(290,80%,50%)" opacity="0.7"/><polygon points="250.0,250.0 240.3,194.9 250.0,194.0" fill="hsl(300,80%,50%)" opacity="0.7"/><polygon points="250.0,250.0 250.0,194.0 259.7,194.9" fill="hsl(310,80%,50%)" opacity="0.7"/><polygon points="250.0,250.0 259.7,194.9 269.2,197.4" fill="hsl(320,80%,50%)" opacity="0.7"/><polygon points="250.0,250.0 269.2,197.4 278.0,201.5" fill="hsl(330,80%,50%)" opacity="0.7"/><polygon points="250.0,250.0 278.0,201.5 286.0,207.1" fill="hsl(340,80%,50%)" opacity="0.7"/><polygon points="250.0,250.0 286.0,207.1 292.9,214.0" fill="hsl(350,80%,50%)" opacity="0.7"/><polygon points="250.0,250.0 292.9,214.0 298.5,222.0" fill="hsl(0,80%,50%)" opacity="0.7"/><polygon points="250.0,250.0 298.5,222.0 302.6,230.8" fill="hsl(9,80%,50%)" opacity="0.7"/><polygon points="250.0,250.0 302.6,230.8 305.1,240.3" fill="hsl(20,80%,50%)" opacity="0.7"/><polygon points="250.0,250.0 305.1,240.3 306.0,250.0" fill="hsl(30,80%,50%)" opacity="0.7"/><polygon points="250.0,250.0 334.0,250.0 332.7,264.6" fill="hsl(60,80%,50%)" opacity="0.7"/><polygon points="250.0,250.0 332.7,264.6 328.9,278.7" fill="hsl(70,80%,50%)" opacity="0.7"/><polygon points="250.0,250.0 328.9,278.7 322.7,292.0" fill="hsl(80,80%,50%)" opacity="0.7"/><polygon points="250.0,250.0 322.7,292.0 314.3,304.0" fill="hsl(90,80%,50%)" opacity="0.7"/><polygon points="250.0,250.0 314.3,304.0 304.0,314.3" fill="hsl(100,80%,50%)" opacity="0.7"/><polygon points="250.0,250.0 304.0,314.3 292.0,322.7" fill="hsl(110,80%,50%)" opacity="0.7"/><polygon points="250.0,250.0 292.0,322.7 278.7,328.9" fill="hsl(120,80%,50%)" opacity="0.7"/><polygon points="250.0,250.0 278.7,328.9 264.6,332.7" fill="hsl(130,80%,50%)" opacity="0.7"/><polygon points="250.0,250.0 264.6,332.7 250.0,334.0" fill="hsl(140,80%,50%)" opacity="0.7"/><polygon points="250.0,250.0 250.0,334.0 235.4,332.7" fill="hsl(150,80%,50%)" opacity="0.7"/><polygon points="250.0,250.0 235.4,332.7 221.3,328.9" fill="hsl(160,80%,50%)" opacity="0.7"/><polygon points="250.0,250.0 221.3,328.9 208.0,322.7" fill="hsl(170,80%,50%)" opacity="0.7"/><polygon points="250.0,250.0 208.0,322.7 196.0,314.3" fill="hsl(180,80%,50%)" opacity="0.7"/><polygon points="250.0,250.0 196.0,314.3 185.7,304.0" fill="hsl(190,80%,50%)" opacity="0.7"/><polygon points="250.0,250.0 185.7,304.0 177.3,292.0" fill="hsl(200,80%,50%)" opacity="0.7"/><polygon points="250.0,250.0 177.3,292.0 171.1,278.7" fill="hsl(210,80%,50%)" opacity="0.7"/><polygon points="250.0,250.0 171.1,278.7 167.3,264.6" fill="hsl(220,80%,50%)" opacity="0.7"/><polygon points="250.0,250.0 167.3,264.6 166.0,250.0" fill="hsl(229,80%,50%)" opacity="0.7"/><polygon points="250.0,250.0 166.0,250.0 167.3,235.4" fill="hsl(240,80%,50%)" opacity="0.7"/><polygon points="250.0,250.0 167.3,235.4 171.1,221.3" fill="hsl(250,80%,50%)" opacity="0.7"/><polygon points="250.0,250.0 171.1,221.3 177.3,208.0" fill="hsl(260,80%,50%)" opacity="0.7"/><polygon points="250.0,250.0 177.3,208.0 185.7,196.0" fill="hsl(270,80%,50%)" opacity="0.7"/><polygon points="250.0,250.0 185.7,196.0 196.0,185.7" fill="hsl(280,80%,50%)" opacity="0.7"/><polygon points="250.0,250.0 196.0,185.7 208.0,177.3" fill="hsl(290,80%,50%)" opacity="0.7"/><polygon points="250.0,250.0 208.0,177.3 221.3,171.1" fill="hsl(300,80%,50%)" opacity="0.7"/><polygon points="250.0,250.0 221.3,171.1 235.4,167.3" fill="hsl(310,80%,50%)" opacity="0.7"/><polygon points="250.0,250.0 235.4,167.3 250.0,166.0" fill="hsl(320,80%,50%)" opacity="0.7"/><polygon points="250.0,250.0 250.0,166.0 264.6,167.3" fill="hsl(330,80%,50%)" opacity="0.7"/><polygon points="250.0,250.0 264.6,167.3 278.7,171.1" fill="hsl(340,80%,50%)" opacity="0.7"/><polygon points="250.0,250.0 278.7,171.1 292.0,177.3" fill="hsl(350,80%,50%)" opacity="0.7"/><polygon points="250.0,250.0 292.0,177.3 304.0,185.7" fill="hsl(0,80%,50%)" opacity="0.7"/><polygon points="250.0,250.0 304.0,185.7 314.3,196.0" fill="hsl(9,80%,50%)" opacity="0.7"/><polygon points="250.0,250.0 314.3,196.0 322.7,208.0" fill="hsl(20,80%,50%)" opacity="0.7"/><polygon points="250.0,250.0 322.7,208.0 328.9,221.3" fill="hsl(30,80%,50%)" opacity="0.7"/><polygon points="250.0,250.0 328.9,221.3 332.7,235.4" fill="hsl(40,80%,50%)" opacity="0.7"/><polygon points="250.0,250.0 332.7,235.4 334.0,250.0" fill="hsl(50,80%,50%)" opacity="0.7"/><polygon points="250.0,250.0 362.0,250.0 360.3,269.4" fill="hsl(80,80%,50%)" opacity="0.7"/><polygon points="250.0,250.0 360.3,269.4 355.2,288.3" fill="hsl(90,80%,50%)" opacity="0.7"/><polygon points="250.0,250.0 355.2,288.3 347.0,306.0" fill="hsl(100,80%,50%)" opacity="0.7"/><polygon points="250.0,250.0 347.0,306.0 335.8,322.0" fill="hsl(110,80%,50%)" opacity="0.7"/><polygon points="250.0,250.0 335.8,322.0 322.0,335.8" fill="hsl(120,80%,50%)" opacity="0.7"/><polygon points="250.0,250.0 322.0,335.8 306.0,347.0" fill="hsl(130,80%,50%)" opacity="0.7"/><polygon points="250.0,250.0 306.0,347.0 288.3,355.2" fill="hsl(140,80%,50%)" opacity="0.7"/><polygon points="250.0,250.0 288.3,355.2 269.4,360.3" fill="hsl(150,80%,50%)" opacity="0.7"/><polygon points="250.0,250.0 269.4,360.3 250.0,362.0" fill="hsl(160,80%,50%)" opacity="0.7"/><polygon points="250.0,250.0 250.0,362.0 230.6,360.3" fill="hsl(170,80%,50%)" opacity="0.7"/><polygon points="250.0,250.0 230.6,360.3 211.7,355.2" fill="hsl(180,80%,50%)" opacity="0.7"/><polygon points="250.0,250.0 211.7,355.2 194.0,347.0" fill="hsl(190,80%,50%)" opacity="0.7"/><polygon points="250.0,250.0 194.0,347.0 178.0,335.8" fill="hsl(200,80%,50%)" opacity="0.7"/><polygon points="250.0,250.0 178.0,335.8 164.2,322.0" fill="hsl(210,80%,50%)" opacity="0.7"/><polygon points="250.0,250.0 164.2,322.0 153.0,306.0" fill="hsl(220,80%,50%)" opacity="0.7"/><polygon points="250.0,250.0 153.0,306.0 144.8,288.3" fill="hsl(229,80%,50%)" opacity="0.7"/><polygon points="250.0,250.0 144.8,288.3 139.7,269.4" fill="hsl(240,80%,50%)" opacity="0.7"/><polygon points="250.0,250.0 139.7,269.4 138.0,250.0" fill="hsl(250,80%,50%)" opacity="0.7"/><polygon points="250.0,250.0 138.0,250.0 139.7,230.6" fill="hsl(260,80%,50%)" opacity="0.7"/><polygon points="250.0,250.0 139.7,230.6 144.8,211.7" fill="hsl(270,80%,50%)" opacity="0.7"/><polygon points="250.0,250.0 144.8,211.7 153.0,194.0" fill="hsl(280,80%,50%)" opacity="0.7"/><polygon points="250.0,250.0 153.0,194.0 164.2,178.0" fill="hsl(290,80%,50%)" opacity="0.7"/><polygon points="250.0,250.0 164.2,178.0 178.0,164.2" fill="hsl(300,80%,50%)" opacity="0.7"/><polygon points="250.0,250.0 178.0,164.2 194.0,153.0" fill="hsl(310,80%,50%)" opacity="0.7"/><polygon points="250.0,250.0 194.0,153.0 211.7,144.8" fill="hsl(320,80%,50%)" opacity="0.7"/><polygon points="250.0,250.0 211.7,144.8 230.6,139.7" fill="hsl(330,80%,50%)" opacity="0.7"/><polygon points="250.0,250.0 230.6,139.7 250.0,138.0" fill="hsl(340,80%,50%)" opacity="0.7"/><polygon points="250.0,250.0 250.0,138.0 269.4,139.7" fill="hsl(350,80%,50%)" opacity="0.7"/><polygon points="250.0,250.0 269.4,139.7 288.3,144.8" fill="hsl(0,80%,50%)" opacity="0.7"/><polygon points="250.0,250.0 288.3,144.8 306.0,153.0" fill="hsl(9,80%,50%)" opacity="0.7"/><polygon points="250.0,250.0 306.0,153.0 322.0,164.2" fill="hsl(20,80%,50%)" opacity="0.7"/><polygon points="250.0,250.0 322.0,164.2 335.8,178.0" fill="hsl(30,80%,50%)" opacity="0.7"/><polygon points="250.0,250.0 335.8,178.0 347.0,194.0" fill="hsl(40,80%,50%)" opacity="0.7"/><polygon points="250.0,250.0 347.0,194.0 355.2,211.7" fill="hsl(50,80%,50%)" opacity="0.7"/><polygon points="250.0,250.0 355.2,211.7 360.3,230.6" fill="hsl(60,80%,50%)" opacity="0.7"/><polygon points="250.0,250.0 360.3,230.6 362.0,250.0" fill="hsl(70,80%,50%)" opacity="0.7"/><polygon points="250.0,250.0 390.0,250.0 387.9,274.3" fill="hsl(100,80%,50%)" opacity="0.7"/><polygon points="250.0,250.0 387.9,274.3 381.6,297.9" fill="hsl(110,80%,50%)" opacity="0.7"/><polygon points="250.0,250.0 381.6,297.9 371.2,320.0" fill="hsl(120,80%,50%)" opacity="0.7"/><polygon points="250.0,250.0 371.2,320.0 357.2,340.0" fill="hsl(130,80%,50%)" opacity="0.7"/><polygon points="250.0,250.0 357.2,340.0 340.0,357.2" fill="hsl(140,80%,50%)" opacity="0.7"/><polygon points="250.0,250.0 340.0,357.2 320.0,371.2" fill="hsl(150,80%,50%)" opacity="0.7"/><polygon points="250.0,250.0 320.0,371.2 297.9,381.6" fill="hsl(160,80%,50%)" opacity="0.7"/><polygon points="250.0,250.0 297.9,381.6 274.3,387.9" fill="hsl(170,80%,50%)" opacity="0.7"/><polygon points="250.0,250.0 274.3,387.9 250.0,390.0" fill="hsl(180,80%,50%)" opacity="0.7"/><polygon points="250.0,250.0 250.0,390.0 225.7,387.9" fill="hsl(190,80%,50%)" opacity="0.7"/><polygon points="250.0,250.0 225.7,387.9 202.1,381.6" fill="hsl(200,80%,50%)" opacity="0.7"/><polygon points="250.0,250.0 202.1,381.6 180.0,371.2" fill="hsl(210,80%,50%)" opacity="0.7"/><polygon points="250.0,250.0 180.0,371.2 160.0,357.2" fill="hsl(220,80%,50%)" opacity="0.7"/><polygon points="250.0,250.0 160.0,357.2 142.8,340.0" fill="hsl(229,80%,50%)" opacity="0.7"/><polygon points="250.0,250.0 142.8,340.0 128.8,320.0" fill="hsl(240,80%,50%)" opacity="0.7"/><polygon points="250.0,250.0 128.8,320.0 118.4,297.9" fill="hsl(250,80%,50%)" opacity="0.7"/><polygon points="250.0,250.0 118.4,297.9 112.1,274.3" fill="hsl(260,80%,50%)" opacity="0.7"/><polygon points="250.0,250.0 112.1,274.3 110.0,250.0" fill="hsl(270,80%,50%)" opacity="0.7"/><polygon points="250.0,250.0 110.0,250.0 112.1,225.7" fill="hsl(280,80%,50%)" opacity="0.7"/><polygon points="250.0,250.0 112.1,225.7 118.4,202.1" fill="hsl(290,80%,50%)" opacity="0.7"/><polygon points="250.0,250.0 118.4,202.1 128.8,180.0" fill="hsl(300,80%,50%)" opacity="0.7"/><polygon points="250.0,250.0 128.8,180.0 142.8,160.0" fill="hsl(310,80%,50%)" opacity="0.7"/><polygon points="250.0,250.0 142.8,160.0 160.0,142.8" fill="hsl(320,80%,50%)" opacity="0.7"/><polygon points="250.0,250.0 160.0,142.8 180.0,128.8" fill="hsl(330,80%,50%)" opacity="0.7"/><polygon points="250.0,250.0 180.0,128.8 202.1,118.4" fill="hsl(340,80%,50%)" opacity="0.7"/><polygon points="250.0,250.0 202.1,118.4 225.7,112.1" fill="hsl(350,80%,50%)" opacity="0.7"/><polygon points="250.0,250.0 225.7,112.1 250.0,110.0" fill="hsl(0,80%,50%)" opacity="0.7"/><polygon points="250.0,250.0 250.0,110.0 274.3,112.1" fill="hsl(9,80%,50%)" opacity="0.7"/><polygon points="250.0,250.0 274.3,112.1 297.9,118.4" fill="hsl(20,80%,50%)" opacity="0.7"/><polygon points="250.0,250.0 297.9,118.4 320.0,128.8" fill="hsl(30,80%,50%)" opacity="0.7"/><polygon points="250.0,250.0 320.0,128.8 340.0,142.8" fill="hsl(40,80%,50%)" opacity="0.7"/><polygon points="250.0,250.0 340.0,142.8 357.2,160.0" fill="hsl(50,80%,50%)" opacity="0.7"/><polygon points="250.0,250.0 357.2,160.0 371.2,180.0" fill="hsl(60,80%,50%)" opacity="0.7"/><polygon points="250.0,250.0 371.2,180.0 381.6,202.1" fill="hsl(70,80%,50%)" opacity="0.7"/><polygon points="250.0,250.0 381.6,202.1 387.9,225.7" fill="hsl(80,80%,50%)" opacity="0.7"/><polygon points="250.0,250.0 387.9,225.7 390.0,250.0" fill="hsl(90,80%,50%)" opacity="0.7"/><polygon points="250.0,250.0 418.0,250.0 415.4,279.2" fill="hsl(120,80%,50%)" opacity="0.7"/><polygon points="250.0,250.0 415.4,279.2 407.9,307.5" fill="hsl(130,80%,50%)" opacity="0.7"/><polygon points="250.0,250.0 407.9,307.5 395.5,334.0" fill="hsl(140,80%,50%)" opacity="0.7"/><polygon points="250.0,250.0 395.5,334.0 378.7,358.0" fill="hsl(150,80%,50%)" opacity="0.7"/><polygon points="250.0,250.0 378.7,358.0 358.0,378.7" fill="hsl(160,80%,50%)" opacity="0.7"/><polygon points="250.0,250.0 358.0,378.7 334.0,395.5" fill="hsl(170,80%,50%)" opacity="0.7"/><polygon points="250.0,250.0 334.0,395.5 307.5,407.9" fill="hsl(180,80%,50%)" opacity="0.7"/><polygon points="250.0,250.0 307.5,407.9 279.2,415.4" fill="hsl(190,80%,50%)" opacity="0.7"/><polygon points="250.0,250.0 279.2,415.4 250.0,418.0" fill="hsl(200,80%,50%)" opacity="0.7"/><polygon points="250.0,250.0 250.0,418.0 220.8,415.4" fill="hsl(210,80%,50%)" opacity="0.7"/><polygon points="250.0,250.0 220.8,415.4 192.5,407.9" fill="hsl(220,80%,50%)" opacity="0.7"/><polygon points="250.0,250.0 192.5,407.9 166.0,395.5" fill="hsl(229,80%,50%)" opacity="0.7"/><polygon points="250.0,250.0 166.0,395.5 142.0,378.7" fill="hsl(240,80%,50%)" opacity="0.7"/><polygon points="250.0,250.0 142.0,378.7 121.3,358.0" fill="hsl(250,80%,50%)" opacity="0.7"/><polygon points="250.0,250.0 121.3,358.0 104.5,334.0" fill="hsl(260,80%,50%)" opacity="0.7"/><polygon points="250.0,250.0 104.5,334.0 92.1,307.5" fill="hsl(270,80%,50%)" opacity="0.7"/><polygon points="250.0,250.0 92.1,307.5 84.6,279.2" fill="hsl(280,80%,50%)" opacity="0.7"/><polygon points="250.0,250.0 84.6,279.2 82.0,250.0" fill="hsl(290,80%,50%)" opacity="0.7"/><polygon points="250.0,250.0 82.0,250.0 84.6,220.8" fill="hsl(300,80%,50%)" opacity="0.7"/><polygon points="250.0,250.0 84.6,220.8 92.1,192.5" fill="hsl(310,80%,50%)" opacity="0.7"/><polygon points="250.0,250.0 92.1,192.5 104.5,166.0" fill="hsl(320,80%,50%)" opacity="0.7"/><polygon points="250.0,250.0 104.5,166.0 121.3,142.0" fill="hsl(330,80%,50%)" opacity="0.7"/><polygon points="250.0,250.0 121.3,142.0 142.0,121.3" fill="hsl(340,80%,50%)" opacity="0.7"/><polygon points="250.0,250.0 142.0,121.3 166.0,104.5" fill="hsl(350,80%,50%)" opacity="0.7"/><polygon points="250.0,250.0 166.0,104.5 192.5,92.1" fill="hsl(0,80%,50%)" opacity="0.7"/><polygon points="250.0,250.0 192.5,92.1 220.8,84.6" fill="hsl(9,80%,50%)" opacity="0.7"/><polygon points="250.0,250.0 220.8,84.6 250.0,82.0" fill="hsl(20,80%,50%)" opacity="0.7"/><polygon points="250.0,250.0 250.0,82.0 279.2,84.6" fill="hsl(30,80%,50%)" opacity="0.7"/><polygon points="250.0,250.0 279.2,84.6 307.5,92.1" fill="hsl(40,80%,50%)" opacity="0.7"/><polygon points="250.0,250.0 307.5,92.1 334.0,104.5" fill="hsl(50,80%,50%)" opacity="0.7"/><polygon points="250.0,250.0 334.0,104.5 358.0,121.3" fill="hsl(60,80%,50%)" opacity="0.7"/><polygon points="250.0,250.0 358.0,121.3 378.7,142.0" fill="hsl(70,80%,50%)" opacity="0.7"/><polygon points="250.0,250.0 378.7,142.0 395.5,166.0" fill="hsl(80,80%,50%)" opacity="0.7"/><polygon points="250.0,250.0 395.5,166.0 407.9,192.5" fill="hsl(90,80%,50%)" opacity="0.7"/><polygon points="250.0,250.0 407.9,192.5 415.4,220.8" fill="hsl(99,80%,50%)" opacity="0.7"/><polygon points="250.0,250.0 415.4,220.8 418.0,250.0" fill="hsl(110,80%,50%)" opacity="0.7"/><polygon points="250.0,250.0 446.0,250.0 443.0,284.0" fill="hsl(140,80%,50%)" opacity="0.7"/><polygon points="250.0,250.0 443.0,284.0 434.2,317.0" fill="hsl(150,80%,50%)" opacity="0.7"/><polygon points="250.0,250.0 434.2,317.0 419.7,348.0" fill="hsl(160,80%,50%)" opacity="0.7"/><polygon points="250.0,250.0 419.7,348.0 400.1,376.0" fill="hsl(170,80%,50%)" opacity="0.7"/><polygon points="250.0,250.0 400.1,376.0 376.0,400.1" fill="hsl(180,80%,50%)" opacity="0.7"/><polygon points="250.0,250.0 376.0,400.1 348.0,419.7" fill="hsl(190,80%,50%)" opacity="0.7"/><polygon points="250.0,250.0 348.0,419.7 317.0,434.2" fill="hsl(200,80%,50%)" opacity="0.7"/><polygon points="250.0,250.0 317.0,434.2 284.0,443.0" fill="hsl(210,80%,50%)" opacity="0.7"/><polygon points="250.0,250.0 284.0,443.0 250.0,446.0" fill="hsl(220,80%,50%)" opacity="0.7"/><polygon points="250.0,250.0 250.0,446.0 216.0,443.0" fill="hsl(229,80%,50%)" opacity="0.7"/><polygon points="250.0,250.0 216.0,443.0 183.0,434.2" fill="hsl(240,80%,50%)" opacity="0.7"/><polygon points="250.0,250.0 183.0,434.2 152.0,419.7" fill="hsl(250,80%,50%)" opacity="0.7"/><polygon points="250.0,250.0 152.0,419.7 124.0,400.1" fill="hsl(260,80%,50%)" opacity="0.7"/><polygon points="250.0,250.0 124.0,400.1 99.9,376.0" fill="hsl(270,80%,50%)" opacity="0.7"/><polygon points="250.0,250.0 99.9,376.0 80.3,348.0" fill="hsl(280,80%,50%)" opacity="0.7"/><polygon points="250.0,250.0 80.3,348.0 65.8,317.0" fill="hsl(290,80%,50%)" opacity="0.7"/><polygon points="250.0,250.0 65.8,317.0 57.0,284.0" fill="hsl(300,80%,50%)" opacity="0.7"/><polygon points="250.0,250.0 57.0,284.0 54.0,250.0" fill="hsl(310,80%,50%)" opacity="0.7"/><polygon points="250.0,250.0 54.0,250.0 57.0,216.0" fill="hsl(320,80%,50%)" opacity="0.7"/><polygon points="250.0,250.0 57.0,216.0 65.8,183.0" fill="hsl(330,80%,50%)" opacity="0.7"/><polygon points="250.0,250.0 65.8,183.0 80.3,152.0" fill="hsl(340,80%,50%)" opacity="0.7"/><polygon points="250.0,250.0 80.3,152.0 99.9,124.0" fill="hsl(350,80%,50%)" opacity="0.7"/><polygon points="250.0,250.0 99.9,124.0 124.0,99.9" fill="hsl(0,80%,50%)" opacity="0.7"/><polygon points="250.0,250.0 124.0,99.9 152.0,80.3" fill="hsl(9,80%,50%)" opacity="0.7"/><polygon points="250.0,250.0 152.0,80.3 183.0,65.8" fill="hsl(20,80%,50%)" opacity="0.7"/><polygon points="250.0,250.0 183.0,65.8 216.0,57.0" fill="hsl(30,80%,50%)" opacity="0.7"/><polygon points="250.0,250.0 216.0,57.0 250.0,54.0" fill="hsl(40,80%,50%)" opacity="0.7"/><polygon points="250.0,250.0 250.0,54.0 284.0,57.0" fill="hsl(50,80%,50%)" opacity="0.7"/><polygon points="250.0,250.0 284.0,57.0 317.0,65.8" fill="hsl(60,80%,50%)" opacity="0.7"/><polygon points="250.0,250.0 317.0,65.8 348.0,80.3" fill="hsl(70,80%,50%)" opacity="0.7"/><polygon points="250.0,250.0 348.0,80.3 376.0,99.9" fill="hsl(80,80%,50%)" opacity="0.7"/><polygon points="250.0,250.0 376.0,99.9 400.1,124.0" fill="hsl(90,80%,50%)" opacity="0.7"/><polygon points="250.0,250.0 400.1,124.0 419.7,152.0" fill="hsl(99,80%,50%)" opacity="0.7"/><polygon points="250.0,250.0 419.7,152.0 434.2,183.0" fill="hsl(110,80%,50%)" opacity="0.7"/><polygon points="250.0,250.0 434.2,183.0 443.0,216.0" fill="hsl(120,80%,50%)" opacity="0.7"/><polygon points="250.0,250.0 443.0,216.0 446.0,250.0" fill="hsl(130,80%,50%)" opacity="0.7"/><polygon points="250.0,250.0 474.0,250.0 470.6,288.9" fill="hsl(160,80%,50%)" opacity="0.7"/><polygon points="250.0,250.0 470.6,288.9 460.5,326.6" fill="hsl(170,80%,50%)" opacity="0.7"/><polygon points="250.0,250.0 460.5,326.6 444.0,362.0" fill="hsl(180,80%,50%)" opacity="0.7"/><polygon points="250.0,250.0 444.0,362.0 421.6,394.0" fill="hsl(190,80%,50%)" opacity="0.7"/><polygon points="250.0,250.0 421.6,394.0 394.0,421.6" fill="hsl(200,80%,50%)" opacity="0.7"/><polygon points="250.0,250.0 394.0,421.6 362.0,444.0" fill="hsl(210,80%,50%)" opacity="0.7"/><polygon points="250.0,250.0 362.0,444.0 326.6,460.5" fill="hsl(220,80%,50%)" opacity="0.7"/><polygon points="250.0,250.0 326.6,460.5 288.9,470.6" fill="hsl(229,80%,50%)" opacity="0.7"/><polygon points="250.0,250.0 288.9,470.6 250.0,474.0" fill="hsl(240,80%,50%)" opacity="0.7"/><polygon points="250.0,250.0 250.0,474.0 211.1,470.6" fill="hsl(250,80%,50%)" opacity="0.7"/><polygon points="250.0,250.0 211.1,470.6 173.4,460.5" fill="hsl(260,80%,50%)" opacity="0.7"/><polygon points="250.0,250.0 173.4,460.5 138.0,444.0" fill="hsl(270,80%,50%)" opacity="0.7"/><polygon points="250.0,250.0 138.0,444.0 106.0,421.6" fill="hsl(280,80%,50%)" opacity="0.7"/><polygon points="250.0,250.0 106.0,421.6 78.4,394.0" fill="hsl(290,80%,50%)" opacity="0.7"/><polygon points="250.0,250.0 78.4,394.0 56.0,362.0" fill="hsl(300,80%,50%)" opacity="0.7"/><polygon points="250.0,250.0 56.0,362.0 39.5,326.6" fill="hsl(310,80%,50%)" opacity="0.7"/><polygon points="250.0,250.0 39.5,326.6 29.4,288.9" fill="hsl(320,80%,50%)" opacity="0.7"/><polygon points="250.0,250.0 29.4,288.9 26.0,250.0" fill="hsl(330,80%,50%)" opacity="0.7"/><polygon points="250.0,250.0 26.0,250.0 29.4,211.1" fill="hsl(340,80%,50%)" opacity="0.7"/><polygon points="250.0,250.0 29.4,211.1 39.5,173.4" fill="hsl(350,80%,50%)" opacity="0.7"/><polygon points="250.0,250.0 39.5,173.4 56.0,138.0" fill="hsl(0,80%,50%)" opacity="0.7"/><polygon points="250.0,250.0 56.0,138.0 78.4,106.0" fill="hsl(9,80%,50%)" opacity="0.7"/><polygon points="250.0,250.0 78.4,106.0 106.0,78.4" fill="hsl(20,80%,50%)" opacity="0.7"/><polygon points="250.0,250.0 106.0,78.4 138.0,56.0" fill="hsl(30,80%,50%)" opacity="0.7"/><polygon points="250.0,250.0 138.0,56.0 173.4,39.5" fill="hsl(40,80%,50%)" opacity="0.7"/><polygon points="250.0,250.0 173.4,39.5 211.1,29.4" fill="hsl(50,80%,50%)" opacity="0.7"/><polygon points="250.0,250.0 211.1,29.4 250.0,26.0" fill="hsl(60,80%,50%)" opacity="0.7"/><polygon points="250.0,250.0 250.0,26.0 288.9,29.4" fill="hsl(70,80%,50%)" opacity="0.7"/><polygon points="250.0,250.0 288.9,29.4 326.6,39.5" fill="hsl(80,80%,50%)" opacity="0.7"/><polygon points="250.0,250.0 326.6,39.5 362.0,56.0" fill="hsl(90,80%,50%)" opacity="0.7"/><polygon points="250.0,250.0 362.0,56.0 394.0,78.4" fill="hsl(99,80%,50%)" opacity="0.7"/><polygon points="250.0,250.0 394.0,78.4 421.6,106.0" fill="hsl(110,80%,50%)" opacity="0.7"/><polygon points="250.0,250.0 421.6,106.0 444.0,138.0" fill="hsl(120,80%,50%)" opacity="0.7"/><polygon points="250.0,250.0 444.0,138.0 460.5,173.4" fill="hsl(130,80%,50%)" opacity="0.7"/><polygon points="250.0,250.0 460.5,173.4 470.6,211.1" fill="hsl(140,80%,50%)" opacity="0.7"/><polygon points="250.0,250.0 470.6,211.1 474.0,250.0" fill="hsl(150,80%,50%)" opacity="0.7"/></svg>